<?xml version="1.0" encoding="utf-8"?>
<!-- Generator: Adobe Illustrator 22.0.1, SVG Export Plug-In . SVG Version: 6.00 Build 0)  -->
<svg version="1.1" id="Layer_1" xmlns="http://www.w3.org/2000/svg" xmlns:xlink="http://www.w3.org/1999/xlink" x="0px" y="0px"
	 viewBox="0 0 453.9 84.2" style="enable-background:new 0 0 453.9 84.2;" xml:space="preserve">
<style type="text/css">
	.st0{fill-rule:evenodd;clip-rule:evenodd;fill:#DD6600;}
	.st1{fill-rule:evenodd;clip-rule:evenodd;fill:#444343;}
</style>
<g>
	<path class="st0" d="M15.6,83.8c-3.9-0.2-7.9-0.5-12.1-5.4c-1.9-2.4-3-5-2.9-7.6c0.1-1.6-0.3-3.2,0-4.9c0-12.1-0.1-24.2,0.1-36.3
		c0-1.7,0.7-3.4,1.6-5.1C3.1,22.9,4.9,21,6.5,20c2.7-1.9,5.6-2.4,8.5-2.7h60.4v9.8c-17.4,0-34.9,0-52.3,0c-2.1-0.2-4.2-0.2-6.4,0.5
		c-1,0.4-2.2,0.9-3.1,2.4c-1.1,2.1-0.5,4.2-0.7,6.4L12.7,39c0,8.6-0.1,17.2,0.1,25.8c0.3,2.3-0.8,4.6,1.2,7c2.8,3,5.9,2,8.8,2.2
		c18.2,0,36.4,0,54.6,0v9.8L15.6,83.8L15.6,83.8"/>
	<path class="st1" d="M126.1,39.6c-2.3-0.1-4.6-0.3-7.1-3.2c-1.4-1.7-1.8-3.5-1.7-5.3c-0.1-0.7-0.1-1.4,0-2c0-7.2-0.1-14.4,0.1-21.7
		c0.2-1.5,0.8-2.9,2.5-4.5c1.9-1.7,3.9-2.2,5.9-2.3h35.5v5.8c-10.9,0-21.8,0-32.8,0c-1.1,0.1-2.4,0.1-3.5,1.7
		c-0.8,1.7-0.2,3.5-0.5,5.3c0,5.9-0.1,11.8,0.1,17.7c0,0.7,0.4,1.6,1.4,2.2c1.7,0.9,3.4,0.6,5.1,0.7h31.3v5.8L126.1,39.6L126.1,39.6
		"/>
	<path class="st0" d="M76.1,33.4c2.9-0.1,5.8,0.4,8.8-1.2c2.1-1.6,2.3-3.6,2.3-5.5c-0.1-4,0.1-8.1-0.2-12.1c-0.1-1.3-1.7-3.1-3-3.5
		c-0.8-0.3-1.7-0.5-2.6-0.6H0V0.7c28.1,0,56.3,0,84.4,0c4,0.2,7.9,0.6,12.2,5.3c1.8,2.2,2.9,4.5,2.9,6.8c-0.1,6,0,12,0,18
		c0,2.7-1.4,5.5-4.3,8.3c-3.4,3.1-7.1,3.9-10.8,3.9v0H71.2L96,66.3c1.9,2.8,2.6,5.6,2.4,8.6l0.1,8.9H86.3c0-2.7,0.1-5.3,0-8
		c-0.2-1.2-0.6-2.6-2.3-3.9L59,48.2l-5.5-5H36.1v24.6H23.9V33.4h0v0H76.1"/>
	<path class="st1" d="M146.6,64.8L146.6,64.8l-5.7,0L152,75.2c1,1.3,1.3,2.8,1.2,4.2l0,4.5h-6.3c0-1.5,0.1-2.9-0.1-4.4
		c-0.1-0.4-0.3-0.8-0.9-1.3l-11.8-11.1l-2.5-2.2H124V84h-6.3V59.6h0v0c9,0,18.1,0,27.1,0c0.8-0.1,1.9-0.3,2.4-1.4
		c0.4-2.2,0.1-4.5,0.1-6.7c0.1-0.8-0.9-1.8-1.8-1.9c-0.2,0-0.4-0.1-0.6-0.1h-38.4v-5.2c13.3,0,26.6,0,40,0c1.8,0.1,3.6,0.4,5.5,2.2
		c1.7,1.8,1.9,3.7,1.8,5.7c-0.1,2.5,0.2,5.1-0.2,7.6c-0.4,1.7-2.6,3.9-4.3,4.5C148.4,64.6,147.5,64.8,146.6,64.8"/>
	<polyline class="st1" points="176.5,39.5 171.1,39.5 171.1,0.5 176.5,0.5 176.5,17 210.6,17 210.6,0.5 216,0.5 216,39.5 
		210.6,39.5 210.6,21.9 176.5,21.9 176.5,39.5 	"/>
	<polyline class="st1" points="159.3,83.8 159.3,44.1 198.4,44.1 198.4,49.1 164.7,49.1 164.7,60.6 197,60.6 197,65.7 164.7,65.7 
		164.7,78.7 198.4,78.7 198.4,83.8 159.3,83.8 	"/>
	<polyline class="st1" points="209.4,83.8 204.8,83.8 204.8,44.1 211.2,44.1 231.3,77.7 251.4,44.1 258.1,44.1 258.1,83.8 
		253.4,83.8 253.4,50.2 233.2,83.8 229.7,83.8 209.4,50.2 209.4,83.8 	"/>
	<path class="st1" d="M298.1,48.6c-6.8,0-13.5-0.1-20.3,0.1c-1.8,0.2-3.6,0.3-5.4,1.9c-2.5,2.6-2,5.4-2.1,8.1
		c0,4.5-0.1,9.1,0.1,13.6c0.2,1.6,0.3,3.3,2.3,5c2.5,1.8,5.2,1.6,7.8,1.7c6.8,0,13.5,0.1,20.3-0.1c1.9-0.2,3.8-0.3,5.7-2.2
		c2-2.3,1.7-4.8,1.7-7.2c0-4.9,0.1-9.8-0.1-14.7c-0.2-1.5-0.4-2.9-2.2-4.5C303.5,48.5,300.7,48.6,298.1,48.6 M282.8,84.2
		c-4.4,0-8.7,0.2-13.2-2.1c-1.1-0.6-2.3-1.7-3-2.8c-2.1-3.2-2.2-6.5-2.2-9.8c0-4.7-0.1-9.4,0.1-14.1c0.3-2.6,0.6-5.1,2.6-7.8
		c3-3.3,6.3-3.5,9.5-3.9c6.4-0.4,12.8-0.1,19.1-0.2c4.3,0,8.6-0.1,13,1.9c1.1,0.5,2.4,1.7,3.1,2.8c2.1,3.3,2.2,6.8,2.3,10.2
		c0,4.4,0.1,8.8-0.1,13.2c-0.2,2.7-0.4,5.4-2.5,8.2c-2.9,3.4-6.1,3.6-9.2,4.1c-2.2,0.2-4.4,0.3-6.6,0.2L282.8,84.2L282.8,84.2z"/>
	<path class="st1" d="M353.3,49.1H326v29.6c9.5,0,19,0,28.5,0c2.2-0.2,4.3,0,6.6-2.5c1.6-2.1,1.6-4.4,1.7-6.6c0-4.3,0-8.6,0-12.9
		c-0.2-2.1,0-4.3-2.8-6.3C357.8,49.1,355.6,49.1,353.3,49.1 M350.2,44.1c4.7,0.1,9.4-0.6,14.3,3.1c4,3.6,3.9,7.6,4.1,11.5
		c0,4.2,0.1,8.5-0.1,12.8c-0.2,2.8-0.5,5.6-3.2,8.6c-4.8,4.4-10,3.7-15.1,3.8h-29.7V44.1H350.2z"/>
	<polyline class="st1" points="374.9,83.8 374.9,44.1 414,44.1 414,49.1 380.3,49.1 380.3,60.6 412.6,60.6 412.6,65.7 380.3,65.7 
		380.3,78.7 414,78.7 414,83.8 374.9,83.8 	"/>
	<polyline class="st1" points="420.1,83.8 420.1,44.1 425.7,44.1 425.7,78.8 453.8,78.8 453.8,83.8 420.1,83.8 	"/>
	<rect x="224.8" y="0.5" class="st1" width="5.4" height="39"/>
	<polyline class="st1" points="244.8,39.5 239.4,39.5 239.4,0.5 247.4,0.5 281.5,34 281.5,0.5 287,0.5 287,39.5 279.5,39.5 
		244.8,5.5 244.8,39.5 	"/>
	<path class="st1" d="M328.1,4.9c-6.7,0-13.3-0.1-20,0.1c-1.8,0.2-3.5,0.3-5.3,1.9c-2.5,2.5-2,5.3-2,8c0,4.5-0.1,8.9,0.1,13.4
		c0.2,1.6,0.3,3.2,2.3,4.9c2.4,1.8,5.1,1.6,7.6,1.7c6.7,0,13.3,0.1,20-0.1c1.8-0.2,3.7-0.3,5.6-2.2c1.9-2.3,1.7-4.7,1.7-7.1
		c0-4.8,0.1-9.6-0.1-14.5c-0.2-1.4-0.4-2.9-2.1-4.4C333.3,4.8,330.6,5,328.1,4.9 M313,40c-4.3,0-8.6,0.2-13-2
		c-1-0.6-2.3-1.7-2.9-2.7c-2-3.1-2.1-6.4-2.2-9.7c0-4.6-0.1-9.3,0.1-13.9c0.3-2.5,0.5-5,2.6-7.6c2.9-3.3,6.2-3.4,9.4-3.8
		c6.3-0.4,12.5-0.1,18.8-0.2c4.2,0,8.5-0.1,12.7,1.9c1.1,0.6,2.4,1.7,3.1,2.7c2.1,3.2,2.2,6.7,2.3,10.1c0,4.3,0.1,8.7-0.1,13
		c-0.2,2.6-0.4,5.3-2.5,8.1c-2.8,3.4-6,3.6-9,4c-2.2,0.2-4.3,0.3-6.5,0.2H313z"/>
	<path class="st1" d="M384.1,4.9c-6.7,0-13.3-0.1-20,0.1c-1.8,0.2-3.5,0.3-5.3,1.9c-2.5,2.5-2,5.3-2,8c0,4.5-0.1,8.9,0.1,13.4
		c0.2,1.6,0.3,3.2,2.3,4.9c2.5,1.8,5.1,1.6,7.6,1.7c6.6,0,13.3,0.1,20-0.1c1.8-0.2,3.7-0.3,5.6-2.2c1.9-2.3,1.7-4.7,1.7-7.1
		c0-4.8,0.1-9.6-0.1-14.5c-0.2-1.4-0.4-2.9-2.1-4.4C389.4,4.8,386.7,5,384.1,4.9 M369.1,40c-4.3,0-8.6,0.2-13-2
		c-1-0.6-2.3-1.7-2.9-2.7c-2-3.1-2.1-6.4-2.2-9.7c0-4.6-0.1-9.3,0.1-13.9c0.3-2.5,0.5-5,2.6-7.6c2.9-3.3,6.2-3.4,9.4-3.8
		c6.3-0.4,12.5-0.1,18.8-0.2c4.2,0,8.5-0.1,12.7,1.9c1.1,0.6,2.4,1.7,3,2.7c2.1,3.2,2.2,6.7,2.3,10.1c0,4.3,0.1,8.7-0.1,13
		c-0.2,2.6-0.4,5.3-2.5,8.1c-2.8,3.4-6,3.6-9,4c-2.2,0.2-4.3,0.3-6.5,0.2H369.1z"/>
	<polyline class="st1" points="413.3,39.5 407.8,39.5 407.8,0.5 413.3,0.5 413.3,16.8 419.6,16.8 443.4,0.5 451.9,0.5 452.1,1 
		425.2,19.3 453.9,39 453.8,39.5 445.1,39.5 419.6,21.6 413.3,21.6 413.3,39.5 	"/>
</g>
</svg>
